<?xml version="1.0" encoding="utf-8"?>
<svg xmlns="http://www.w3.org/2000/svg" xmlns:xlink="http://www.w3.org/1999/xlink" style="margin: auto; background: none; display: block; shape-rendering: auto;" width="184px" height="184px" viewBox="0 0 100 100" preserveAspectRatio="xMidYMid">
<g transform="rotate(0 50 50)">
  <rect x="45" y="15.5" rx="0" ry="0" width="10" height="13" fill="#8f8bed">
    <animate attributeName="opacity" values="1;0" keyTimes="0;1" dur="3.846153846153846s" begin="-3.8076923076923075s" repeatCount="indefinite"></animate>
  </rect>
</g><g transform="rotate(3.6 50 50)">
  <rect x="45" y="15.5" rx="0" ry="0" width="10" height="13" fill="#8f8bed">
    <animate attributeName="opacity" values="1;0" keyTimes="0;1" dur="3.846153846153846s" begin="-3.769230769230769s" repeatCount="indefinite"></animate>
  </rect>
</g><g transform="rotate(7.2 50 50)">
  <rect x="45" y="15.5" rx="0" ry="0" width="10" height="13" fill="#8f8bed">
    <animate attributeName="opacity" values="1;0" keyTimes="0;1" dur="3.846153846153846s" begin="-3.730769230769231s" repeatCount="indefinite"></animate>
  </rect>
</g><g transform="rotate(10.8 50 50)">
  <rect x="45" y="15.5" rx="0" ry="0" width="10" height="13" fill="#8f8bed">
    <animate attributeName="opacity" values="1;0" keyTimes="0;1" dur="3.846153846153846s" begin="-3.6923076923076925s" repeatCount="indefinite"></animate>
  </rect>
</g><g transform="rotate(14.4 50 50)">
  <rect x="45" y="15.5" rx="0" ry="0" width="10" height="13" fill="#8f8bed">
    <animate attributeName="opacity" values="1;0" keyTimes="0;1" dur="3.846153846153846s" begin="-3.6538461538461537s" repeatCount="indefinite"></animate>
  </rect>
</g><g transform="rotate(18 50 50)">
  <rect x="45" y="15.5" rx="0" ry="0" width="10" height="13" fill="#8f8bed">
    <animate attributeName="opacity" values="1;0" keyTimes="0;1" dur="3.846153846153846s" begin="-3.6153846153846154s" repeatCount="indefinite"></animate>
  </rect>
</g><g transform="rotate(21.6 50 50)">
  <rect x="45" y="15.5" rx="0" ry="0" width="10" height="13" fill="#8f8bed">
    <animate attributeName="opacity" values="1;0" keyTimes="0;1" dur="3.846153846153846s" begin="-3.576923076923077s" repeatCount="indefinite"></animate>
  </rect>
</g><g transform="rotate(25.2 50 50)">
  <rect x="45" y="15.5" rx="0" ry="0" width="10" height="13" fill="#8f8bed">
    <animate attributeName="opacity" values="1;0" keyTimes="0;1" dur="3.846153846153846s" begin="-3.5384615384615383s" repeatCount="indefinite"></animate>
  </rect>
</g><g transform="rotate(28.8 50 50)">
  <rect x="45" y="15.5" rx="0" ry="0" width="10" height="13" fill="#8f8bed">
    <animate attributeName="opacity" values="1;0" keyTimes="0;1" dur="3.846153846153846s" begin="-3.5s" repeatCount="indefinite"></animate>
  </rect>
</g><g transform="rotate(32.4 50 50)">
  <rect x="45" y="15.5" rx="0" ry="0" width="10" height="13" fill="#8f8bed">
    <animate attributeName="opacity" values="1;0" keyTimes="0;1" dur="3.846153846153846s" begin="-3.4615384615384617s" repeatCount="indefinite"></animate>
  </rect>
</g><g transform="rotate(36 50 50)">
  <rect x="45" y="15.5" rx="0" ry="0" width="10" height="13" fill="#8f8bed">
    <animate attributeName="opacity" values="1;0" keyTimes="0;1" dur="3.846153846153846s" begin="-3.423076923076923s" repeatCount="indefinite"></animate>
  </rect>
</g><g transform="rotate(39.6 50 50)">
  <rect x="45" y="15.5" rx="0" ry="0" width="10" height="13" fill="#8f8bed">
    <animate attributeName="opacity" values="1;0" keyTimes="0;1" dur="3.846153846153846s" begin="-3.3846153846153846s" repeatCount="indefinite"></animate>
  </rect>
</g><g transform="rotate(43.2 50 50)">
  <rect x="45" y="15.5" rx="0" ry="0" width="10" height="13" fill="#8f8bed">
    <animate attributeName="opacity" values="1;0" keyTimes="0;1" dur="3.846153846153846s" begin="-3.3461538461538463s" repeatCount="indefinite"></animate>
  </rect>
</g><g transform="rotate(46.8 50 50)">
  <rect x="45" y="15.5" rx="0" ry="0" width="10" height="13" fill="#8f8bed">
    <animate attributeName="opacity" values="1;0" keyTimes="0;1" dur="3.846153846153846s" begin="-3.3076923076923075s" repeatCount="indefinite"></animate>
  </rect>
</g><g transform="rotate(50.4 50 50)">
  <rect x="45" y="15.5" rx="0" ry="0" width="10" height="13" fill="#8f8bed">
    <animate attributeName="opacity" values="1;0" keyTimes="0;1" dur="3.846153846153846s" begin="-3.269230769230769s" repeatCount="indefinite"></animate>
  </rect>
</g><g transform="rotate(54 50 50)">
  <rect x="45" y="15.5" rx="0" ry="0" width="10" height="13" fill="#8f8bed">
    <animate attributeName="opacity" values="1;0" keyTimes="0;1" dur="3.846153846153846s" begin="-3.230769230769231s" repeatCount="indefinite"></animate>
  </rect>
</g><g transform="rotate(57.6 50 50)">
  <rect x="45" y="15.5" rx="0" ry="0" width="10" height="13" fill="#8f8bed">
    <animate attributeName="opacity" values="1;0" keyTimes="0;1" dur="3.846153846153846s" begin="-3.1923076923076925s" repeatCount="indefinite"></animate>
  </rect>
</g><g transform="rotate(61.2 50 50)">
  <rect x="45" y="15.5" rx="0" ry="0" width="10" height="13" fill="#8f8bed">
    <animate attributeName="opacity" values="1;0" keyTimes="0;1" dur="3.846153846153846s" begin="-3.1538461538461537s" repeatCount="indefinite"></animate>
  </rect>
</g><g transform="rotate(64.8 50 50)">
  <rect x="45" y="15.5" rx="0" ry="0" width="10" height="13" fill="#8f8bed">
    <animate attributeName="opacity" values="1;0" keyTimes="0;1" dur="3.846153846153846s" begin="-3.1153846153846154s" repeatCount="indefinite"></animate>
  </rect>
</g><g transform="rotate(68.4 50 50)">
  <rect x="45" y="15.5" rx="0" ry="0" width="10" height="13" fill="#8f8bed">
    <animate attributeName="opacity" values="1;0" keyTimes="0;1" dur="3.846153846153846s" begin="-3.076923076923077s" repeatCount="indefinite"></animate>
  </rect>
</g><g transform="rotate(72 50 50)">
  <rect x="45" y="15.5" rx="0" ry="0" width="10" height="13" fill="#8f8bed">
    <animate attributeName="opacity" values="1;0" keyTimes="0;1" dur="3.846153846153846s" begin="-3.0384615384615383s" repeatCount="indefinite"></animate>
  </rect>
</g><g transform="rotate(75.6 50 50)">
  <rect x="45" y="15.5" rx="0" ry="0" width="10" height="13" fill="#8f8bed">
    <animate attributeName="opacity" values="1;0" keyTimes="0;1" dur="3.846153846153846s" begin="-3s" repeatCount="indefinite"></animate>
  </rect>
</g><g transform="rotate(79.2 50 50)">
  <rect x="45" y="15.5" rx="0" ry="0" width="10" height="13" fill="#8f8bed">
    <animate attributeName="opacity" values="1;0" keyTimes="0;1" dur="3.846153846153846s" begin="-2.9615384615384617s" repeatCount="indefinite"></animate>
  </rect>
</g><g transform="rotate(82.8 50 50)">
  <rect x="45" y="15.5" rx="0" ry="0" width="10" height="13" fill="#8f8bed">
    <animate attributeName="opacity" values="1;0" keyTimes="0;1" dur="3.846153846153846s" begin="-2.923076923076923s" repeatCount="indefinite"></animate>
  </rect>
</g><g transform="rotate(86.4 50 50)">
  <rect x="45" y="15.5" rx="0" ry="0" width="10" height="13" fill="#8f8bed">
    <animate attributeName="opacity" values="1;0" keyTimes="0;1" dur="3.846153846153846s" begin="-2.8846153846153846s" repeatCount="indefinite"></animate>
  </rect>
</g><g transform="rotate(90 50 50)">
  <rect x="45" y="15.5" rx="0" ry="0" width="10" height="13" fill="#8f8bed">
    <animate attributeName="opacity" values="1;0" keyTimes="0;1" dur="3.846153846153846s" begin="-2.8461538461538463s" repeatCount="indefinite"></animate>
  </rect>
</g><g transform="rotate(93.6 50 50)">
  <rect x="45" y="15.5" rx="0" ry="0" width="10" height="13" fill="#8f8bed">
    <animate attributeName="opacity" values="1;0" keyTimes="0;1" dur="3.846153846153846s" begin="-2.8076923076923075s" repeatCount="indefinite"></animate>
  </rect>
</g><g transform="rotate(97.2 50 50)">
  <rect x="45" y="15.5" rx="0" ry="0" width="10" height="13" fill="#8f8bed">
    <animate attributeName="opacity" values="1;0" keyTimes="0;1" dur="3.846153846153846s" begin="-2.769230769230769s" repeatCount="indefinite"></animate>
  </rect>
</g><g transform="rotate(100.8 50 50)">
  <rect x="45" y="15.5" rx="0" ry="0" width="10" height="13" fill="#8f8bed">
    <animate attributeName="opacity" values="1;0" keyTimes="0;1" dur="3.846153846153846s" begin="-2.730769230769231s" repeatCount="indefinite"></animate>
  </rect>
</g><g transform="rotate(104.4 50 50)">
  <rect x="45" y="15.5" rx="0" ry="0" width="10" height="13" fill="#8f8bed">
    <animate attributeName="opacity" values="1;0" keyTimes="0;1" dur="3.846153846153846s" begin="-2.6923076923076925s" repeatCount="indefinite"></animate>
  </rect>
</g><g transform="rotate(108 50 50)">
  <rect x="45" y="15.5" rx="0" ry="0" width="10" height="13" fill="#8f8bed">
    <animate attributeName="opacity" values="1;0" keyTimes="0;1" dur="3.846153846153846s" begin="-2.6538461538461537s" repeatCount="indefinite"></animate>
  </rect>
</g><g transform="rotate(111.6 50 50)">
  <rect x="45" y="15.5" rx="0" ry="0" width="10" height="13" fill="#8f8bed">
    <animate attributeName="opacity" values="1;0" keyTimes="0;1" dur="3.846153846153846s" begin="-2.6153846153846154s" repeatCount="indefinite"></animate>
  </rect>
</g><g transform="rotate(115.2 50 50)">
  <rect x="45" y="15.5" rx="0" ry="0" width="10" height="13" fill="#8f8bed">
    <animate attributeName="opacity" values="1;0" keyTimes="0;1" dur="3.846153846153846s" begin="-2.576923076923077s" repeatCount="indefinite"></animate>
  </rect>
</g><g transform="rotate(118.8 50 50)">
  <rect x="45" y="15.5" rx="0" ry="0" width="10" height="13" fill="#8f8bed">
    <animate attributeName="opacity" values="1;0" keyTimes="0;1" dur="3.846153846153846s" begin="-2.5384615384615383s" repeatCount="indefinite"></animate>
  </rect>
</g><g transform="rotate(122.4 50 50)">
  <rect x="45" y="15.5" rx="0" ry="0" width="10" height="13" fill="#8f8bed">
    <animate attributeName="opacity" values="1;0" keyTimes="0;1" dur="3.846153846153846s" begin="-2.5s" repeatCount="indefinite"></animate>
  </rect>
</g><g transform="rotate(126 50 50)">
  <rect x="45" y="15.5" rx="0" ry="0" width="10" height="13" fill="#8f8bed">
    <animate attributeName="opacity" values="1;0" keyTimes="0;1" dur="3.846153846153846s" begin="-2.4615384615384617s" repeatCount="indefinite"></animate>
  </rect>
</g><g transform="rotate(129.6 50 50)">
  <rect x="45" y="15.5" rx="0" ry="0" width="10" height="13" fill="#8f8bed">
    <animate attributeName="opacity" values="1;0" keyTimes="0;1" dur="3.846153846153846s" begin="-2.423076923076923s" repeatCount="indefinite"></animate>
  </rect>
</g><g transform="rotate(133.2 50 50)">
  <rect x="45" y="15.5" rx="0" ry="0" width="10" height="13" fill="#8f8bed">
    <animate attributeName="opacity" values="1;0" keyTimes="0;1" dur="3.846153846153846s" begin="-2.3846153846153846s" repeatCount="indefinite"></animate>
  </rect>
</g><g transform="rotate(136.8 50 50)">
  <rect x="45" y="15.5" rx="0" ry="0" width="10" height="13" fill="#8f8bed">
    <animate attributeName="opacity" values="1;0" keyTimes="0;1" dur="3.846153846153846s" begin="-2.3461538461538463s" repeatCount="indefinite"></animate>
  </rect>
</g><g transform="rotate(140.4 50 50)">
  <rect x="45" y="15.5" rx="0" ry="0" width="10" height="13" fill="#8f8bed">
    <animate attributeName="opacity" values="1;0" keyTimes="0;1" dur="3.846153846153846s" begin="-2.3076923076923075s" repeatCount="indefinite"></animate>
  </rect>
</g><g transform="rotate(144 50 50)">
  <rect x="45" y="15.5" rx="0" ry="0" width="10" height="13" fill="#8f8bed">
    <animate attributeName="opacity" values="1;0" keyTimes="0;1" dur="3.846153846153846s" begin="-2.269230769230769s" repeatCount="indefinite"></animate>
  </rect>
</g><g transform="rotate(147.6 50 50)">
  <rect x="45" y="15.5" rx="0" ry="0" width="10" height="13" fill="#8f8bed">
    <animate attributeName="opacity" values="1;0" keyTimes="0;1" dur="3.846153846153846s" begin="-2.230769230769231s" repeatCount="indefinite"></animate>
  </rect>
</g><g transform="rotate(151.2 50 50)">
  <rect x="45" y="15.5" rx="0" ry="0" width="10" height="13" fill="#8f8bed">
    <animate attributeName="opacity" values="1;0" keyTimes="0;1" dur="3.846153846153846s" begin="-2.1923076923076925s" repeatCount="indefinite"></animate>
  </rect>
</g><g transform="rotate(154.8 50 50)">
  <rect x="45" y="15.5" rx="0" ry="0" width="10" height="13" fill="#8f8bed">
    <animate attributeName="opacity" values="1;0" keyTimes="0;1" dur="3.846153846153846s" begin="-2.1538461538461537s" repeatCount="indefinite"></animate>
  </rect>
</g><g transform="rotate(158.4 50 50)">
  <rect x="45" y="15.5" rx="0" ry="0" width="10" height="13" fill="#8f8bed">
    <animate attributeName="opacity" values="1;0" keyTimes="0;1" dur="3.846153846153846s" begin="-2.1153846153846154s" repeatCount="indefinite"></animate>
  </rect>
</g><g transform="rotate(162 50 50)">
  <rect x="45" y="15.5" rx="0" ry="0" width="10" height="13" fill="#8f8bed">
    <animate attributeName="opacity" values="1;0" keyTimes="0;1" dur="3.846153846153846s" begin="-2.076923076923077s" repeatCount="indefinite"></animate>
  </rect>
</g><g transform="rotate(165.6 50 50)">
  <rect x="45" y="15.5" rx="0" ry="0" width="10" height="13" fill="#8f8bed">
    <animate attributeName="opacity" values="1;0" keyTimes="0;1" dur="3.846153846153846s" begin="-2.0384615384615383s" repeatCount="indefinite"></animate>
  </rect>
</g><g transform="rotate(169.2 50 50)">
  <rect x="45" y="15.5" rx="0" ry="0" width="10" height="13" fill="#8f8bed">
    <animate attributeName="opacity" values="1;0" keyTimes="0;1" dur="3.846153846153846s" begin="-2s" repeatCount="indefinite"></animate>
  </rect>
</g><g transform="rotate(172.8 50 50)">
  <rect x="45" y="15.5" rx="0" ry="0" width="10" height="13" fill="#8f8bed">
    <animate attributeName="opacity" values="1;0" keyTimes="0;1" dur="3.846153846153846s" begin="-1.9615384615384615s" repeatCount="indefinite"></animate>
  </rect>
</g><g transform="rotate(176.4 50 50)">
  <rect x="45" y="15.5" rx="0" ry="0" width="10" height="13" fill="#8f8bed">
    <animate attributeName="opacity" values="1;0" keyTimes="0;1" dur="3.846153846153846s" begin="-1.9230769230769231s" repeatCount="indefinite"></animate>
  </rect>
</g><g transform="rotate(180 50 50)">
  <rect x="45" y="15.5" rx="0" ry="0" width="10" height="13" fill="#8f8bed">
    <animate attributeName="opacity" values="1;0" keyTimes="0;1" dur="3.846153846153846s" begin="-1.8846153846153846s" repeatCount="indefinite"></animate>
  </rect>
</g><g transform="rotate(183.6 50 50)">
  <rect x="45" y="15.5" rx="0" ry="0" width="10" height="13" fill="#8f8bed">
    <animate attributeName="opacity" values="1;0" keyTimes="0;1" dur="3.846153846153846s" begin="-1.8461538461538463s" repeatCount="indefinite"></animate>
  </rect>
</g><g transform="rotate(187.2 50 50)">
  <rect x="45" y="15.5" rx="0" ry="0" width="10" height="13" fill="#8f8bed">
    <animate attributeName="opacity" values="1;0" keyTimes="0;1" dur="3.846153846153846s" begin="-1.8076923076923077s" repeatCount="indefinite"></animate>
  </rect>
</g><g transform="rotate(190.8 50 50)">
  <rect x="45" y="15.5" rx="0" ry="0" width="10" height="13" fill="#8f8bed">
    <animate attributeName="opacity" values="1;0" keyTimes="0;1" dur="3.846153846153846s" begin="-1.7692307692307692s" repeatCount="indefinite"></animate>
  </rect>
</g><g transform="rotate(194.4 50 50)">
  <rect x="45" y="15.5" rx="0" ry="0" width="10" height="13" fill="#8f8bed">
    <animate attributeName="opacity" values="1;0" keyTimes="0;1" dur="3.846153846153846s" begin="-1.7307692307692308s" repeatCount="indefinite"></animate>
  </rect>
</g><g transform="rotate(198 50 50)">
  <rect x="45" y="15.5" rx="0" ry="0" width="10" height="13" fill="#8f8bed">
    <animate attributeName="opacity" values="1;0" keyTimes="0;1" dur="3.846153846153846s" begin="-1.6923076923076923s" repeatCount="indefinite"></animate>
  </rect>
</g><g transform="rotate(201.6 50 50)">
  <rect x="45" y="15.5" rx="0" ry="0" width="10" height="13" fill="#8f8bed">
    <animate attributeName="opacity" values="1;0" keyTimes="0;1" dur="3.846153846153846s" begin="-1.6538461538461537s" repeatCount="indefinite"></animate>
  </rect>
</g><g transform="rotate(205.2 50 50)">
  <rect x="45" y="15.5" rx="0" ry="0" width="10" height="13" fill="#8f8bed">
    <animate attributeName="opacity" values="1;0" keyTimes="0;1" dur="3.846153846153846s" begin="-1.6153846153846154s" repeatCount="indefinite"></animate>
  </rect>
</g><g transform="rotate(208.8 50 50)">
  <rect x="45" y="15.5" rx="0" ry="0" width="10" height="13" fill="#8f8bed">
    <animate attributeName="opacity" values="1;0" keyTimes="0;1" dur="3.846153846153846s" begin="-1.5769230769230769s" repeatCount="indefinite"></animate>
  </rect>
</g><g transform="rotate(212.4 50 50)">
  <rect x="45" y="15.5" rx="0" ry="0" width="10" height="13" fill="#8f8bed">
    <animate attributeName="opacity" values="1;0" keyTimes="0;1" dur="3.846153846153846s" begin="-1.5384615384615385s" repeatCount="indefinite"></animate>
  </rect>
</g><g transform="rotate(216 50 50)">
  <rect x="45" y="15.5" rx="0" ry="0" width="10" height="13" fill="#8f8bed">
    <animate attributeName="opacity" values="1;0" keyTimes="0;1" dur="3.846153846153846s" begin="-1.5s" repeatCount="indefinite"></animate>
  </rect>
</g><g transform="rotate(219.6 50 50)">
  <rect x="45" y="15.5" rx="0" ry="0" width="10" height="13" fill="#8f8bed">
    <animate attributeName="opacity" values="1;0" keyTimes="0;1" dur="3.846153846153846s" begin="-1.4615384615384615s" repeatCount="indefinite"></animate>
  </rect>
</g><g transform="rotate(223.2 50 50)">
  <rect x="45" y="15.5" rx="0" ry="0" width="10" height="13" fill="#8f8bed">
    <animate attributeName="opacity" values="1;0" keyTimes="0;1" dur="3.846153846153846s" begin="-1.4230769230769231s" repeatCount="indefinite"></animate>
  </rect>
</g><g transform="rotate(226.8 50 50)">
  <rect x="45" y="15.5" rx="0" ry="0" width="10" height="13" fill="#8f8bed">
    <animate attributeName="opacity" values="1;0" keyTimes="0;1" dur="3.846153846153846s" begin="-1.3846153846153846s" repeatCount="indefinite"></animate>
  </rect>
</g><g transform="rotate(230.4 50 50)">
  <rect x="45" y="15.5" rx="0" ry="0" width="10" height="13" fill="#8f8bed">
    <animate attributeName="opacity" values="1;0" keyTimes="0;1" dur="3.846153846153846s" begin="-1.3461538461538463s" repeatCount="indefinite"></animate>
  </rect>
</g><g transform="rotate(234 50 50)">
  <rect x="45" y="15.5" rx="0" ry="0" width="10" height="13" fill="#8f8bed">
    <animate attributeName="opacity" values="1;0" keyTimes="0;1" dur="3.846153846153846s" begin="-1.3076923076923077s" repeatCount="indefinite"></animate>
  </rect>
</g><g transform="rotate(237.6 50 50)">
  <rect x="45" y="15.5" rx="0" ry="0" width="10" height="13" fill="#8f8bed">
    <animate attributeName="opacity" values="1;0" keyTimes="0;1" dur="3.846153846153846s" begin="-1.2692307692307692s" repeatCount="indefinite"></animate>
  </rect>
</g><g transform="rotate(241.2 50 50)">
  <rect x="45" y="15.5" rx="0" ry="0" width="10" height="13" fill="#8f8bed">
    <animate attributeName="opacity" values="1;0" keyTimes="0;1" dur="3.846153846153846s" begin="-1.2307692307692308s" repeatCount="indefinite"></animate>
  </rect>
</g><g transform="rotate(244.8 50 50)">
  <rect x="45" y="15.5" rx="0" ry="0" width="10" height="13" fill="#8f8bed">
    <animate attributeName="opacity" values="1;0" keyTimes="0;1" dur="3.846153846153846s" begin="-1.1923076923076923s" repeatCount="indefinite"></animate>
  </rect>
</g><g transform="rotate(248.4 50 50)">
  <rect x="45" y="15.5" rx="0" ry="0" width="10" height="13" fill="#8f8bed">
    <animate attributeName="opacity" values="1;0" keyTimes="0;1" dur="3.846153846153846s" begin="-1.1538461538461537s" repeatCount="indefinite"></animate>
  </rect>
</g><g transform="rotate(252 50 50)">
  <rect x="45" y="15.5" rx="0" ry="0" width="10" height="13" fill="#8f8bed">
    <animate attributeName="opacity" values="1;0" keyTimes="0;1" dur="3.846153846153846s" begin="-1.1153846153846154s" repeatCount="indefinite"></animate>
  </rect>
</g><g transform="rotate(255.6 50 50)">
  <rect x="45" y="15.5" rx="0" ry="0" width="10" height="13" fill="#8f8bed">
    <animate attributeName="opacity" values="1;0" keyTimes="0;1" dur="3.846153846153846s" begin="-1.0769230769230769s" repeatCount="indefinite"></animate>
  </rect>
</g><g transform="rotate(259.2 50 50)">
  <rect x="45" y="15.5" rx="0" ry="0" width="10" height="13" fill="#8f8bed">
    <animate attributeName="opacity" values="1;0" keyTimes="0;1" dur="3.846153846153846s" begin="-1.0384615384615385s" repeatCount="indefinite"></animate>
  </rect>
</g><g transform="rotate(262.8 50 50)">
  <rect x="45" y="15.5" rx="0" ry="0" width="10" height="13" fill="#8f8bed">
    <animate attributeName="opacity" values="1;0" keyTimes="0;1" dur="3.846153846153846s" begin="-1s" repeatCount="indefinite"></animate>
  </rect>
</g><g transform="rotate(266.4 50 50)">
  <rect x="45" y="15.5" rx="0" ry="0" width="10" height="13" fill="#8f8bed">
    <animate attributeName="opacity" values="1;0" keyTimes="0;1" dur="3.846153846153846s" begin="-0.9615384615384616s" repeatCount="indefinite"></animate>
  </rect>
</g><g transform="rotate(270 50 50)">
  <rect x="45" y="15.5" rx="0" ry="0" width="10" height="13" fill="#8f8bed">
    <animate attributeName="opacity" values="1;0" keyTimes="0;1" dur="3.846153846153846s" begin="-0.9230769230769231s" repeatCount="indefinite"></animate>
  </rect>
</g><g transform="rotate(273.6 50 50)">
  <rect x="45" y="15.5" rx="0" ry="0" width="10" height="13" fill="#8f8bed">
    <animate attributeName="opacity" values="1;0" keyTimes="0;1" dur="3.846153846153846s" begin="-0.8846153846153846s" repeatCount="indefinite"></animate>
  </rect>
</g><g transform="rotate(277.2 50 50)">
  <rect x="45" y="15.5" rx="0" ry="0" width="10" height="13" fill="#8f8bed">
    <animate attributeName="opacity" values="1;0" keyTimes="0;1" dur="3.846153846153846s" begin="-0.8461538461538461s" repeatCount="indefinite"></animate>
  </rect>
</g><g transform="rotate(280.8 50 50)">
  <rect x="45" y="15.5" rx="0" ry="0" width="10" height="13" fill="#8f8bed">
    <animate attributeName="opacity" values="1;0" keyTimes="0;1" dur="3.846153846153846s" begin="-0.8076923076923077s" repeatCount="indefinite"></animate>
  </rect>
</g><g transform="rotate(284.4 50 50)">
  <rect x="45" y="15.5" rx="0" ry="0" width="10" height="13" fill="#8f8bed">
    <animate attributeName="opacity" values="1;0" keyTimes="0;1" dur="3.846153846153846s" begin="-0.7692307692307693s" repeatCount="indefinite"></animate>
  </rect>
</g><g transform="rotate(288 50 50)">
  <rect x="45" y="15.5" rx="0" ry="0" width="10" height="13" fill="#8f8bed">
    <animate attributeName="opacity" values="1;0" keyTimes="0;1" dur="3.846153846153846s" begin="-0.7307692307692307s" repeatCount="indefinite"></animate>
  </rect>
</g><g transform="rotate(291.6 50 50)">
  <rect x="45" y="15.5" rx="0" ry="0" width="10" height="13" fill="#8f8bed">
    <animate attributeName="opacity" values="1;0" keyTimes="0;1" dur="3.846153846153846s" begin="-0.6923076923076923s" repeatCount="indefinite"></animate>
  </rect>
</g><g transform="rotate(295.2 50 50)">
  <rect x="45" y="15.5" rx="0" ry="0" width="10" height="13" fill="#8f8bed">
    <animate attributeName="opacity" values="1;0" keyTimes="0;1" dur="3.846153846153846s" begin="-0.6538461538461539s" repeatCount="indefinite"></animate>
  </rect>
</g><g transform="rotate(298.8 50 50)">
  <rect x="45" y="15.5" rx="0" ry="0" width="10" height="13" fill="#8f8bed">
    <animate attributeName="opacity" values="1;0" keyTimes="0;1" dur="3.846153846153846s" begin="-0.6153846153846154s" repeatCount="indefinite"></animate>
  </rect>
</g><g transform="rotate(302.4 50 50)">
  <rect x="45" y="15.5" rx="0" ry="0" width="10" height="13" fill="#8f8bed">
    <animate attributeName="opacity" values="1;0" keyTimes="0;1" dur="3.846153846153846s" begin="-0.5769230769230769s" repeatCount="indefinite"></animate>
  </rect>
</g><g transform="rotate(306 50 50)">
  <rect x="45" y="15.5" rx="0" ry="0" width="10" height="13" fill="#8f8bed">
    <animate attributeName="opacity" values="1;0" keyTimes="0;1" dur="3.846153846153846s" begin="-0.5384615384615384s" repeatCount="indefinite"></animate>
  </rect>
</g><g transform="rotate(309.6 50 50)">
  <rect x="45" y="15.5" rx="0" ry="0" width="10" height="13" fill="#8f8bed">
    <animate attributeName="opacity" values="1;0" keyTimes="0;1" dur="3.846153846153846s" begin="-0.5s" repeatCount="indefinite"></animate>
  </rect>
</g><g transform="rotate(313.2 50 50)">
  <rect x="45" y="15.5" rx="0" ry="0" width="10" height="13" fill="#8f8bed">
    <animate attributeName="opacity" values="1;0" keyTimes="0;1" dur="3.846153846153846s" begin="-0.46153846153846156s" repeatCount="indefinite"></animate>
  </rect>
</g><g transform="rotate(316.8 50 50)">
  <rect x="45" y="15.5" rx="0" ry="0" width="10" height="13" fill="#8f8bed">
    <animate attributeName="opacity" values="1;0" keyTimes="0;1" dur="3.846153846153846s" begin="-0.4230769230769231s" repeatCount="indefinite"></animate>
  </rect>
</g><g transform="rotate(320.4 50 50)">
  <rect x="45" y="15.5" rx="0" ry="0" width="10" height="13" fill="#8f8bed">
    <animate attributeName="opacity" values="1;0" keyTimes="0;1" dur="3.846153846153846s" begin="-0.38461538461538464s" repeatCount="indefinite"></animate>
  </rect>
</g><g transform="rotate(324 50 50)">
  <rect x="45" y="15.5" rx="0" ry="0" width="10" height="13" fill="#8f8bed">
    <animate attributeName="opacity" values="1;0" keyTimes="0;1" dur="3.846153846153846s" begin="-0.34615384615384615s" repeatCount="indefinite"></animate>
  </rect>
</g><g transform="rotate(327.6 50 50)">
  <rect x="45" y="15.5" rx="0" ry="0" width="10" height="13" fill="#8f8bed">
    <animate attributeName="opacity" values="1;0" keyTimes="0;1" dur="3.846153846153846s" begin="-0.3076923076923077s" repeatCount="indefinite"></animate>
  </rect>
</g><g transform="rotate(331.2 50 50)">
  <rect x="45" y="15.5" rx="0" ry="0" width="10" height="13" fill="#8f8bed">
    <animate attributeName="opacity" values="1;0" keyTimes="0;1" dur="3.846153846153846s" begin="-0.2692307692307692s" repeatCount="indefinite"></animate>
  </rect>
</g><g transform="rotate(334.8 50 50)">
  <rect x="45" y="15.5" rx="0" ry="0" width="10" height="13" fill="#8f8bed">
    <animate attributeName="opacity" values="1;0" keyTimes="0;1" dur="3.846153846153846s" begin="-0.23076923076923078s" repeatCount="indefinite"></animate>
  </rect>
</g><g transform="rotate(338.4 50 50)">
  <rect x="45" y="15.5" rx="0" ry="0" width="10" height="13" fill="#8f8bed">
    <animate attributeName="opacity" values="1;0" keyTimes="0;1" dur="3.846153846153846s" begin="-0.19230769230769232s" repeatCount="indefinite"></animate>
  </rect>
</g><g transform="rotate(342 50 50)">
  <rect x="45" y="15.5" rx="0" ry="0" width="10" height="13" fill="#8f8bed">
    <animate attributeName="opacity" values="1;0" keyTimes="0;1" dur="3.846153846153846s" begin="-0.15384615384615385s" repeatCount="indefinite"></animate>
  </rect>
</g><g transform="rotate(345.6 50 50)">
  <rect x="45" y="15.5" rx="0" ry="0" width="10" height="13" fill="#8f8bed">
    <animate attributeName="opacity" values="1;0" keyTimes="0;1" dur="3.846153846153846s" begin="-0.11538461538461539s" repeatCount="indefinite"></animate>
  </rect>
</g><g transform="rotate(349.2 50 50)">
  <rect x="45" y="15.5" rx="0" ry="0" width="10" height="13" fill="#8f8bed">
    <animate attributeName="opacity" values="1;0" keyTimes="0;1" dur="3.846153846153846s" begin="-0.07692307692307693s" repeatCount="indefinite"></animate>
  </rect>
</g><g transform="rotate(352.8 50 50)">
  <rect x="45" y="15.5" rx="0" ry="0" width="10" height="13" fill="#8f8bed">
    <animate attributeName="opacity" values="1;0" keyTimes="0;1" dur="3.846153846153846s" begin="-0.038461538461538464s" repeatCount="indefinite"></animate>
  </rect>
</g><g transform="rotate(356.4 50 50)">
  <rect x="45" y="15.5" rx="0" ry="0" width="10" height="13" fill="#8f8bed">
    <animate attributeName="opacity" values="1;0" keyTimes="0;1" dur="3.846153846153846s" begin="0s" repeatCount="indefinite"></animate>
  </rect>
</g>
<!-- [ldio] generated by https://loading.io/ --></svg>